<?xml version="1.0" encoding="utf-8"?>
<!-- Generator: Adobe Illustrator 15.0.0, SVG Export Plug-In . SVG Version: 6.00 Build 0)  -->
<!DOCTYPE svg PUBLIC "-//W3C//DTD SVG 1.1//EN" "http://www.w3.org/Graphics/SVG/1.1/DTD/svg11.dtd">
<svg version="1.1" id="Layer_1" xmlns="http://www.w3.org/2000/svg" xmlns:xlink="http://www.w3.org/1999/xlink" x="0px" y="0px"
	 width="146.464px" height="133.333px" viewBox="0 0 146.464 133.333" enable-background="new 0 0 146.464 133.333"
	 xml:space="preserve">
<path fill="none" stroke="#FFFFFF" stroke-width="20" stroke-miterlimit="10" d="M156.697,141.453"/>
<path fill="none" stroke="#FFFFFF" stroke-width="20" stroke-miterlimit="10" d="M-2.303,141.453"/>
<g>
	<g>
		<g>
			<g>
				<g>
					<path fill="#FBB03B" d="M185.697,169.453h-223v-205h223V169.453z M55.553,19.516c-1.025-3.385-2.409-6.364-4.15-8.936
						c-1.742-2.571-3.769-4.801-6.079-6.689c-1.335-1.139-2.849-2.205-4.541-3.198C39.089-0.3,37.039-1.195,34.63-1.993
						c-2.409-0.797-5.119-1.436-8.13-1.875c-3.012-0.439-6.633-0.679-10.864-0.679h-27.939v68h35.312h1.025
						c8.724,0,15.511-2.047,20.361-5.855c3.418-2.604,6.388-6.077,8.911-10.276c2.522-4.199,3.784-9.801,3.784-16.735
						C57.091,26.615,56.579,22.901,55.553,19.516z M30.48,45.495c-3.906,2.539-8.529,3.958-13.867,3.958H7.697v-40h8.916
						c3.06,0,6.062,0.328,9.009,1.369c2.945,1.042,5.469,3.004,7.568,6.08s3.149,7.392,3.149,12.893
						C36.339,37.705,34.386,42.956,30.48,45.495z M89.697-4.547h-20v68h20V-4.547z M167.697,40.951c-2,1.335-4.082,2.49-6.084,3.467
						s-4.422,1.864-7.352,2.661c-2.93,0.798-6.016,1.196-9.303,1.196c-4.069,0-7.712-0.838-10.95-2.515
						c-3.239-1.676-5.765-3.938-7.587-6.787c-1.823-2.848-2.731-5.981-2.731-9.399c0-3.874,1.042-7.259,3.126-10.156
						c2.084-2.897,4.835-5.127,8.253-6.689s7.097-2.344,11.036-2.344c4.427,0,8.33,0.692,11.602,2.075
						c3.271,1.384,6.99,3.117,9.99,5.2V-0.309c-10-3.418-18.495-5.127-26.177-5.127c-5.144,0-10.062,0.692-14.7,2.075
						c-4.639,1.384-8.786,3.524-12.415,6.421c-3.63,2.897-6.461,6.535-8.479,10.913c-2.019,4.378-3.031,9.481-3.031,15.308
						c0,5.078,0.854,9.741,2.562,13.989s4.279,7.959,7.714,11.133c3.434,3.174,7.485,5.575,12.157,7.202
						c4.671,1.627,9.952,2.441,15.845,2.441c3.189,0,6.274-0.188,9.253-0.562s5.84-1.001,8.77-1.88s5.501-2.051,8.501-3.516V40.951z
						 M56.138,97.612c-1.627-4.215-4.02-7.91-7.178-11.084s-7.186-5.688-12.084-7.544c-4.9-1.855-10.474-2.783-16.724-2.783
						c-8.366,0-15.454,1.62-21.265,4.858c-5.811,3.239-10.116,7.503-12.915,12.793c-2.8,5.29-4.199,10.979-4.199,17.065
						c0,6.055,1.408,11.735,4.224,17.041c2.815,5.306,7.121,9.587,12.915,12.842c5.794,3.256,12.874,4.883,21.24,4.883
						c8.268,0,15.283-1.562,21.044-4.688s10.1-7.34,13.014-12.646c2.912-5.306,4.369-11.116,4.369-17.432
						C58.58,106.263,57.765,101.828,56.138,97.612z M35.728,119.927c-1.367,2.621-3.369,4.671-6.006,6.152
						c-2.636,1.481-5.827,2.222-9.57,2.222c-5.437,0-9.725-1.603-12.866-4.81c-3.142-3.206-4.712-7.397-4.712-12.573
						s1.562-9.358,4.688-12.549c3.125-3.19,7.422-4.785,12.891-4.785c2.864,0,5.387,0.432,7.568,1.294
						c2.181,0.863,4.029,2.067,5.542,3.613c1.514,1.546,2.645,3.369,3.393,5.469s1.123,4.419,1.123,6.958
						C37.779,114.304,37.095,117.307,35.728,119.927z M149.697,77.453H131.48l-20.898,25.391L89.781,77.453H71.697v67h19v-38.857
						l18.859,22.857h1.611l18.529-22.857v38.857h20V77.453z"/>
				</g>
			</g>
		</g>
	</g>
</g>
</svg>
