<?xml version="1.0" encoding="utf-8"?>
<!-- Generator: Adobe Illustrator 15.0.0, SVG Export Plug-In . SVG Version: 6.00 Build 0)  -->
<!DOCTYPE svg PUBLIC "-//W3C//DTD SVG 1.1//EN" "http://www.w3.org/Graphics/SVG/1.1/DTD/svg11.dtd">
<svg version="1.1" id="Layer_1" xmlns="http://www.w3.org/2000/svg" xmlns:xlink="http://www.w3.org/1999/xlink" x="0px" y="0px"
	 width="443px" height="608px" viewBox="0 0 443 608" enable-background="new 0 0 443 608" xml:space="preserve">
<rect x="252.5" y="107.5" fill="#FFFFFF" width="154" height="358"/>
<rect x="10" y="11.5" fill="none" stroke="#FF9933" stroke-width="20" stroke-miterlimit="10" width="423" height="587"/>
<rect x="42" y="107.5" stroke="#FF9933" stroke-width="10" stroke-miterlimit="10" width="182" height="182"/>
<rect x="42" y="333.5" stroke="#FF9933" stroke-width="10" stroke-miterlimit="10" width="182" height="182"/>
<line fill="none" stroke="#FF9933" stroke-width="20" stroke-miterlimit="10" x1="42" y1="57.5" x2="401" y2="57.5"/>
<path fill="none" stroke="#FF8B3F" stroke-width="10" stroke-miterlimit="10" d="M258,107.5"/>
<g>
	<line fill="none" stroke="#2600BF" stroke-width="10" stroke-miterlimit="10" x1="258" y1="137.5" x2="401" y2="137.5"/>
	<line fill="none" stroke="#2600BF" stroke-width="10" stroke-miterlimit="10" x1="258" y1="170.5" x2="401" y2="170.5"/>
	<line fill="none" stroke="#2600BF" stroke-width="10" stroke-miterlimit="10" x1="258" y1="198.5" x2="401" y2="198.5"/>
	<line fill="none" stroke="#2600BF" stroke-width="10" stroke-miterlimit="10" x1="258" y1="228.5" x2="401" y2="228.5"/>
	<line fill="none" stroke="#2600BF" stroke-width="10" stroke-miterlimit="10" x1="258" y1="261.5" x2="401" y2="261.5"/>
	<line fill="none" stroke="#2600BF" stroke-width="10" stroke-miterlimit="10" x1="258" y1="289.5" x2="401" y2="289.5"/>
	<line fill="none" stroke="#2600BF" stroke-width="10" stroke-miterlimit="10" x1="258" y1="319.5" x2="401" y2="319.5"/>
	<line fill="none" stroke="#2600BF" stroke-width="10" stroke-miterlimit="10" x1="258" y1="352.5" x2="401" y2="352.5"/>
	<line fill="none" stroke="#2600BF" stroke-width="10" stroke-miterlimit="10" x1="258" y1="380.5" x2="401" y2="380.5"/>
	<line fill="none" stroke="#2600BF" stroke-width="10" stroke-miterlimit="10" x1="258" y1="410.5" x2="401" y2="410.5"/>
	<line fill="none" stroke="#2600BF" stroke-width="10" stroke-miterlimit="10" x1="258" y1="443.5" x2="401" y2="443.5"/>
</g>
</svg>
