<?xml version="1.0" encoding="utf-8"?>
<!-- Generator: Adobe Illustrator 15.0.0, SVG Export Plug-In . SVG Version: 6.00 Build 0)  -->
<!DOCTYPE svg PUBLIC "-//W3C//DTD SVG 1.1//EN" "http://www.w3.org/Graphics/SVG/1.1/DTD/svg11.dtd">
<svg version="1.1" id="Layer_1" xmlns="http://www.w3.org/2000/svg" xmlns:xlink="http://www.w3.org/1999/xlink" x="0px" y="0px"
	 width="444px" height="606px" viewBox="0 0 444 606" enable-background="new 0 0 444 606" xml:space="preserve">
<rect x="35" y="107" fill="#FFFFFF" width="373" height="360"/>
<rect x="10.5" y="11.5" fill="none" stroke="#FF9933" stroke-width="20" stroke-miterlimit="10" width="423" height="587"/>
<line fill="none" stroke="#FF9933" stroke-width="20" stroke-miterlimit="10" x1="42.5" y1="57.5" x2="401.5" y2="57.5"/>
<line fill="none" stroke="#2600A7" stroke-width="10" stroke-miterlimit="10" x1="42.5" y1="122" x2="401.5" y2="122"/>
<line fill="none" stroke="#2600A7" stroke-width="10" stroke-miterlimit="10" x1="42.5" y1="155" x2="401.5" y2="155"/>
<line fill="none" stroke="#2600A7" stroke-width="10" stroke-miterlimit="10" x1="42.5" y1="183" x2="401.5" y2="183"/>
<line fill="none" stroke="#2600A7" stroke-width="10" stroke-miterlimit="10" x1="42.5" y1="213" x2="401.5" y2="213"/>
<line fill="none" stroke="#2600A7" stroke-width="10" stroke-miterlimit="10" x1="42.5" y1="246" x2="401.5" y2="246"/>
<line fill="none" stroke="#2600A7" stroke-width="10" stroke-miterlimit="10" x1="42.5" y1="274" x2="401.5" y2="274"/>
<line fill="none" stroke="#2600A7" stroke-width="10" stroke-miterlimit="10" x1="42.5" y1="304" x2="401.5" y2="304"/>
<line fill="none" stroke="#2600A7" stroke-width="10" stroke-miterlimit="10" x1="42.5" y1="337" x2="401.5" y2="337"/>
<line fill="none" stroke="#2600A7" stroke-width="10" stroke-miterlimit="10" x1="42.5" y1="365" x2="401.5" y2="365"/>
<line fill="none" stroke="#2600A7" stroke-width="10" stroke-miterlimit="10" x1="42.5" y1="395" x2="401.5" y2="395"/>
<line fill="none" stroke="#2600A7" stroke-width="10" stroke-miterlimit="10" x1="42.5" y1="428" x2="401.5" y2="428"/>
</svg>
